<svg xmlns="http://www.w3.org/2000/svg" viewBox="0 0 496 496">
  <defs>
    <style>
      .cls-1 {
        fill: #0590d6;
      }
    </style>
  </defs>
  <title>Asset 1</title>
  <g id="Layer_2" data-name="Layer 2">
    <g id="Layer_1-2" data-name="Layer 1">
      <g>
        <path class="cls-1" d="M496,256V48H384V0H112V48H0V256H48V377.137A31.932,31.932,0,1,0,86.863,416H160v13.77l19.648,6.543-9.265,18.519,30.785,30.785,18.512-9.258L226.23,496h43.532l6.551-19.641,18.511,9.258,30.785-30.785-9.265-18.519L336,429.77V416h73.137A31.932,31.932,0,1,0,448,377.137V256ZM384,240V192h96v48Zm-248,0h-8V176H368v64ZM384,128h96v48H384Zm-16,32H128V96H368ZM112,176H16V128h96ZM480,64v48H384V64ZM368,16V80H128V16ZM112,64v48H16V64ZM16,192h96v48H16ZM56,424a16,16,0,1,1,16-16A16.016,16.016,0,0,1,56,424Zm30.863-24A31.952,31.952,0,0,0,64,377.137V256H240v64H226.23l-6.55,19.641-18.512-9.258-30.785,30.785,9.265,18.52L160,386.23V400ZM320,418.23l-18.383,6.129-1.344,3.563c-.386,1.016-.785,2.016-1.226,3l-1.551,3.461,8.649,17.3-14.473,14.472-17.3-8.648-3.465,1.551c-1,.449-2.008.84-3.031,1.242l-3.527,1.351L258.23,480H237.762l-6.121-18.352-3.528-1.351c-1.023-.4-2.043-.8-3.035-1.242l-3.461-1.551-17.3,8.648L189.848,451.68l8.648-17.3-1.551-3.461c-.441-.984-.84-1.984-1.226-3l-1.344-3.563L176,418.23V397.762l18.383-6.129,1.344-3.563c.386-1.015.785-2.015,1.226-3l1.551-3.461-8.649-17.3,14.473-14.473,17.3,8.648,3.465-1.55c1-.45,2.008-.84,3.031-1.243l3.527-1.351L237.77,336h20.468l6.121,18.352,3.528,1.351c1.023.4,2.043.8,3.035,1.242l3.461,1.551,17.3-8.648,14.472,14.472-8.648,17.3,1.551,3.461c.441.985.84,1.985,1.226,3l1.344,3.563L320,397.77ZM456,408a16,16,0,1,1-16-16A16.016,16.016,0,0,1,456,408Zm-24-30.863A31.952,31.952,0,0,0,409.137,400H336V386.23l-19.648-6.542,9.265-18.52-30.785-30.785-18.512,9.258L269.77,320H256V256H432Z"/>
        <path class="cls-1" d="M144,32h16V48H144Z"/>
        <path class="cls-1" d="M176,32h16V48H176Z"/>
        <path class="cls-1" d="M336,32h16V64H336Z"/>
        <path class="cls-1" d="M304,32h16V64H304Z"/>
        <path class="cls-1" d="M272,32h16V64H272Z"/>
        <path class="cls-1" d="M144,112h16v16H144Z"/>
        <path class="cls-1" d="M176,112h16v16H176Z"/>
        <path class="cls-1" d="M336,112h16v32H336Z"/>
        <path class="cls-1" d="M304,112h16v32H304Z"/>
        <path class="cls-1" d="M272,112h16v32H272Z"/>
        <path class="cls-1" d="M144,192h16v16H144Z"/>
        <path class="cls-1" d="M176,192h16v16H176Z"/>
        <path class="cls-1" d="M336,192h16v32H336Z"/>
        <path class="cls-1" d="M304,192h16v32H304Z"/>
        <path class="cls-1" d="M272,192h16v32H272Z"/>
        <path class="cls-1" d="M448,80h16V96H448Z"/>
        <path class="cls-1" d="M416,80h16V96H416Z"/>
        <path class="cls-1" d="M448,144h16v16H448Z"/>
        <path class="cls-1" d="M416,144h16v16H416Z"/>
        <path class="cls-1" d="M448,208h16v16H448Z"/>
        <path class="cls-1" d="M416,208h16v16H416Z"/>
        <path class="cls-1" d="M64,80H80V96H64Z"/>
        <path class="cls-1" d="M32,80H48V96H32Z"/>
        <path class="cls-1" d="M64,144H80v16H64Z"/>
        <path class="cls-1" d="M32,144H48v16H32Z"/>
        <path class="cls-1" d="M64,208H80v16H64Z"/>
        <path class="cls-1" d="M32,208H48v16H32Z"/>
        <path class="cls-1" d="M248,368a40,40,0,1,0,40,40A40.047,40.047,0,0,0,248,368Zm0,64a24,24,0,1,1,24-24A24.032,24.032,0,0,1,248,432Z"/>
      </g>
    </g>
  </g>
</svg>
