<svg id="Layer_1" data-name="Layer 1" xmlns="http://www.w3.org/2000/svg" xmlns:xlink="http://www.w3.org/1999/xlink" viewBox="0 0 24 24">
  <defs>
    <style>
      .cls-1 {
        fill: url(#linear-gradient);
      }

      .cls-2 {
        fill: none;
      }
    </style>
    <linearGradient id="linear-gradient" x1="12" y1="2.209" x2="12" y2="22.609" gradientUnits="userSpaceOnUse">
      <stop offset="0" stop-color="#6bdbea"/>
      <stop offset="1" stop-color="#7f4ced"/>
    </linearGradient>
  </defs>
  <title>design</title>
  <path class="cls-1" d="M18.6,2.4V1.2A1.2,1.2,0,0,0,17.4,0H3A1.2,1.2,0,0,0,1.8,1.2V6A1.2,1.2,0,0,0,3,7.2H17.4A1.2,1.2,0,0,0,18.6,6V4.8h1.2V9.6H7.8V22.8A1.2,1.2,0,0,0,9,24h2.4a1.2,1.2,0,0,0,1.2-1.2V12h9.6V2.4Z"/>
  <path class="cls-2" d="M0,0H24V24H0Z"/>
</svg>
