<svg xmlns="http://www.w3.org/2000/svg" viewBox="0 0 286.968 323.258">
  <defs>
    <style>
      .cls-1 {
        fill: #82cc29;
      }
    </style>
  </defs>
  <title>Asset 1</title>
  <g id="Layer_2" data-name="Layer 2">
    <g id="Layer_1-2" data-name="Layer 1">
      <path class="cls-1" d="M286.907,161.851c0,21.829-.146,43.659.059,65.486.111,11.854-4.838,20.235-15.121,26.1Q214.562,286.1,157.486,319.128c-9.582,5.534-18.784,5.543-28.27-.194-12.4-7.5-24.965-14.71-37.447-22.067-1.412-.832-3.527-1.529-3.521-3.225.008-2.266,2.6-2.261,4.163-2.831,4.545-1.652,9.089-3.317,13.16-5.932,2.912-1.87,5.36-1.713,8.28.092,8.5,5.254,17.194,10.183,25.706,15.413a6.683,6.683,0,0,0,7.782.108Q203.565,268,259.965,235.8c4.317-2.458,5.925-5.214,5.9-10.235q-.312-64.236-.031-128.473c.014-4.168-1.194-6.661-4.872-8.77Q204.4,55.907,148.032,23.155c-3.321-1.929-5.9-1.83-9.177.075q-56.166,32.6-112.5,64.907c-3.8,2.179-5.309,4.667-5.293,9.092q.225,64.236,0,128.473c-.014,4.33,1.135,7.058,5.082,9.213,9.058,4.946,17.869,10.345,26.763,15.591a35.833,35.833,0,0,0,11.584,4.477c10.642,2.015,19.272-4.96,19.484-15.822.1-5.164.02-10.331.02-15.5q0-57.487,0-114.976c0-6.719.435-7.154,7.009-7.18q4-.015,8,0c6.414.029,6.89.481,6.9,6.767q.019,20,0,39.991,0,44.492-.016,88.982a73.694,73.694,0,0,1-.4,9.977c-3.7,26.741-25.352,32.837-46.31,28.527a58.588,58.588,0,0,1-16.631-6.661c-9.738-5.441-19.342-11.122-29.017-16.676C4.66,247.319.1,239.556.075,229.443q-.153-67.736,0-135.471C.094,84.093,4.3,76.3,13.033,71.25q58.4-33.738,116.823-67.427c9.305-5.348,18.764-4.963,28.043.392Q215.228,37.31,272.578,70.364c9.758,5.606,14.405,13.81,14.357,25C286.841,117.526,286.908,139.689,286.907,161.851Z"/>
      <path class="cls-1" d="M180.181,229.248c-13.291-.454-26.2-1.386-38.4-6.6-15.289-6.53-23.34-18.108-24.553-34.616-.288-3.914,1.031-6.075,5.243-5.987,4.163.087,8.329.055,12.493.015,2.8-.026,4.426,1.332,4.755,4.053,1.566,12.962,9.691,19.086,21.839,20.946,12.939,1.98,25.9,2.26,38.723-.675,7.315-1.674,13.414-5.077,14.973-13.442,1.273-6.832-.565-10.854-6.882-13.733-7.987-3.639-16.615-4.705-25.2-5.768-12.377-1.531-24.874-2.208-36.9-5.989C130.818,162.593,122.84,154,121.69,140.7c-1.447-16.743,4.962-28.685,19.545-36,12.425-6.234,25.827-7.395,39.416-6.811,8.973.385,17.891,1.369,26.472,4.483,16.664,6.046,25.279,18.1,27.19,35.433.377,3.426-1.06,5.031-4.279,5.322-1.322.119-2.689-.135-3.992.063-8.507,1.291-14.351-.451-16.561-10.363-1.544-6.923-7.956-10.544-14.754-12.115a79.7,79.7,0,0,0-36.63-.077c-6.47,1.529-11.833,4.749-12.94,12.162-1,6.674.941,10.1,7.345,12.275,8.706,2.951,17.822,4.025,26.874,5.335,12.509,1.81,25.089,3.241,37.153,7.327,12.09,4.1,20.771,11.327,22.293,24.8,1.7,15.077-2.583,27.757-15.8,36.326C209.905,227.356,194.991,228.71,180.181,229.248Z"/>
    </g>
  </g>
</svg>
