<svg xmlns="http://www.w3.org/2000/svg" viewBox="0 0 479.39 426.651">
  <defs>
    <style>
      .cls-1 {
        fill: #00d7fe;
      }

      .cls-2 {
        fill: #fefefe;
      }

      .cls-3 {
        fill: #a9f1fe;
      }
    </style>
  </defs>
  <title>Asset 1</title>
  <g id="Layer_2" data-name="Layer 2">
    <g id="Layer_1-2" data-name="Layer 1">
      <path class="cls-1" d="M93.259,352.552c-.519-18.094,2.242-35.846,6.442-53.371.915-3.818.106-5.069-3.573-6.207-26.111-8.073-50.836-18.942-71.887-36.9a82.879,82.879,0,0,1-16.17-18.278q-16.485-25.695.647-50.952c8.7-12.834,20.756-21.949,33.885-29.784,16.977-10.131,35.262-17.224,54.16-22.734,3.753-1.094,4.058-2.59,3.246-5.874-5.427-21.947-8.1-44.2-6.78-66.835A101.943,101.943,0,0,1,98.844,32.8C108.078,7.172,127.553-3.817,154.2,1.56c22.928,4.626,42.39,16.3,60.832,30a193.352,193.352,0,0,1,21.347,18.076c2.7,2.691,4.29,2.752,7.158.039,16.281-15.4,33.876-29.065,54.136-38.959C310.19,4.605,323.135.08,337.32,0c17.126-.1,29.644,7.555,37.983,22.284,7.4,13.062,10.045,27.422,10.874,42.166,1.225,21.782-1.364,43.241-6.415,64.4-.892,3.74.11,4.835,3.477,5.86,24.663,7.506,48.214,17.387,68.83,33.28,8.112,6.254,15.227,13.46,20.551,22.289,8.767,14.543,9.054,29.258.661,44.041-7.078,12.467-17.513,21.718-29.14,29.722-18.41,12.674-38.779,21.222-59.986,27.865-3.433,1.076-4.221,2.214-3.39,5.878,5.856,25.825,8.842,51.865,4.429,78.286a87.483,87.483,0,0,1-7.108,23.32c-10.114,21.264-28.508,30.528-51.709,26.241-23.26-4.3-42.754-16.2-61.225-30.163a206.353,206.353,0,0,1-21.594-18.56c-2.316-2.316-3.548-2.147-5.869.031-18.213,17.084-38.041,31.861-61.26,41.576-11.293,4.726-22.931,7.937-35.346,7.7-16.171-.315-28.4-7.431-36.762-21.157-7.1-11.65-9.869-24.643-11-38.022C92.92,362.236,93.259,357.38,93.259,352.552Z"/>
      <path class="cls-2" d="M238.438,290.3c-12.828-.1-25.653-.127-38.466-1.018a6.5,6.5,0,0,1-5.636-3.174A599.971,599.971,0,0,1,154.081,216.6a6.715,6.715,0,0,1-.036-6.562,598.6,598.6,0,0,1,40.162-69.567,6.662,6.662,0,0,1,5.714-3.243,662.4,662.4,0,0,1,79.919-.019,6.589,6.589,0,0,1,5.633,3.33A697.381,697.381,0,0,1,325.848,210a5.962,5.962,0,0,1,.049,6.006A693.549,693.549,0,0,1,285.618,286.1c-1.459,2.235-3.162,2.909-5.719,3.084C266.091,290.127,252.267,290.261,238.438,290.3Z"/>
      <path class="cls-2" d="M20.505,213.492c.289-6.634,2.845-11.972,6.551-16.822,8.8-11.515,20.611-19.213,33.161-25.919,13.538-7.233,27.868-12.489,42.526-16.96,2.921-.891,3.963-.486,4.9,2.522a459.238,459.238,0,0,0,20.618,53.441,7.238,7.238,0,0,1,.246,6.611A473.248,473.248,0,0,0,107.339,271.2c-.713,2.273-1.474,3.51-4.138,2.66-23.911-7.623-46.923-17.045-66.123-33.805-7.2-6.281-13.5-13.367-15.923-23.032C20.833,215.734,20.671,214.408,20.505,213.492Z"/>
      <path class="cls-2" d="M113.179,352.676c.071-16.721,2.789-33.094,6.373-49.368.627-2.85,1.745-3.807,4.736-3.156a411.257,411.257,0,0,0,57.213,8.207,7.2,7.2,0,0,1,5.745,3.33,475.272,475.272,0,0,0,37,45.787c1.2,1.31,2.169,2.2.28,3.921-20.948,19.071-43,36.305-71.324,43.131a50.228,50.228,0,0,1-9.375,1.281c-10.728.5-18.523-4.039-23.366-13.747C115.78,382.676,113.161,369.081,113.179,352.676Z"/>
      <path class="cls-2" d="M367.092,350.992c-.338,11.176-1.22,22.614-4.984,33.611-6.4,18.684-17.029,24.555-36.209,19.9-19.561-4.744-35.891-15.582-51.391-27.817-6-4.741-11.545-10.067-17.379-15.029-1.778-1.511-1.9-2.586-.265-4.385a439.669,439.669,0,0,0,36.733-46.69c1.3-1.89,2.96-2.3,5.07-2.493a423.394,423.394,0,0,0,56.683-8.7c3.744-.861,5.111.01,5.918,3.761A250.216,250.216,0,0,1,367.092,350.992Z"/>
      <path class="cls-2" d="M113.226,73.25c.181-11.652,1.094-23.073,5.1-34,5.607-15.3,15.169-20.659,31.141-17.621,21.388,4.069,39.074,15.483,55.907,28.448,6.187,4.765,11.877,10.171,17.888,15.17,2,1.661,2,2.851.228,4.755a452.223,452.223,0,0,0-36.971,45.81,5.6,5.6,0,0,1-4.536,2.426c-19.026,1.954-37.972,4.5-56.623,8.824-3.49.809-4.78.158-5.615-3.577C116.034,106.878,113.5,90.158,113.226,73.25Z"/>
      <path class="cls-2" d="M366.177,73.287a257.662,257.662,0,0,1-6.24,51.16c-.587,2.674-1.259,3.725-4.573,2.959a464.442,464.442,0,0,0-57.579-9.116,6.079,6.079,0,0,1-4.823-2.847,471.58,471.58,0,0,0-36.455-45.576c-1.105-1.208-2.469-2.126-.48-3.952,19.841-18.217,40.589-34.99,66.9-43.17a52.972,52.972,0,0,1,12.74-2.253c9.23-.528,16.517,2.87,21.3,11.1,4.863,8.374,7.012,17.569,8.106,27.021C365.722,64.217,366.447,69.857,366.177,73.287Z"/>
      <path class="cls-2" d="M459.134,212.292a28.984,28.984,0,0,1-5.713,15.185c-6.787,9.534-15.8,16.582-25.586,22.74-15.59,9.811-32.494,16.657-49.965,22.285-3.049.982-3.953.238-4.886-2.627a436.483,436.483,0,0,0-21.53-53.635,7.392,7.392,0,0,1,.115-7.006,486.242,486.242,0,0,0,20.586-52.411c.542-1.651.22-4.181,3.622-3.135,24.805,7.629,48.654,17.162,68.56,34.456,6.326,5.5,11.788,11.782,14,20.212C458.712,209.8,458.932,211.278,459.134,212.292Z"/>
      <path class="cls-2" d="M338.277,236.617c6.051,13.619,10.956,26.425,15.314,39.454.741,2.218.238,2.8-1.919,3.288-13.438,3.045-27.03,5.1-41.814,7.069C319.887,269.869,329.366,254.076,338.277,236.617Z"/>
      <path class="cls-2" d="M169.916,286.415c-10.263-.39-19.307-2.323-28.4-3.717-4.259-.653-8.444-1.785-12.7-2.441-2.351-.363-2.52-1.21-1.859-3.3,4.149-13.126,9.033-25.967,14.639-39.47C150.518,254.313,159.637,270.146,169.916,286.415Z"/>
      <path class="cls-2" d="M268.776,310.155a413.261,413.261,0,0,1-26.411,32.789c-.912,1.023-1.64,2.162-3.085.563-9.429-10.434-18.473-21.177-27.506-33.22A530.3,530.3,0,0,0,268.776,310.155Z"/>
      <path class="cls-2" d="M314.324,141.015c12.252,1.233,24.281,3.771,36.329,6.2,1.588.32,2.9.675,2.162,2.9a411.928,411.928,0,0,1-14.754,38.966c-8.763-16.5-17.709-31.768-26.963-46.857C311.376,139.681,313.02,140.8,314.324,141.015Z"/>
      <path class="cls-2" d="M169.357,141.017C159.339,157,150.317,172.433,141.776,188.9c-4.31-8.884-7.361-17.685-10.459-26.446-1.646-4.655-5.691-10.258-3.785-13.9,1.939-3.7,8.9-2.908,13.709-3.785C150.19,143.14,159.1,141.063,169.357,141.017Z"/>
      <path class="cls-2" d="M211.623,116.318c8.907-11.968,17.676-22.355,26.836-32.431,1.24-1.363,2.022-1.217,3.154.033a415.212,415.212,0,0,1,26.506,32.294A475.933,475.933,0,0,0,211.623,116.318Z"/>
      <path class="cls-3" d="M314.324,141.015c-1.088.365-2.5-.139-3.226,1.2-.551-.385-1.133-1.094-.628-1.524C311.744,139.614,313.088,140.231,314.324,141.015Z"/>
      <path class="cls-1" d="M282.5,212.6a42.72,42.72,0,1,1-43-42.587A42.456,42.456,0,0,1,282.5,212.6Z"/>
    </g>
  </g>
</svg>
